# xmcd
#
# Track frame offsets: 
#        150
#        14871
#        36895
#        53272
#        75303
#        97095
#        119089
#        139337
#        157940
#        175717
#        199260
#        217488
#        237636
#
# Disc length: 3690 seconds
#
# Revision: 0
# Processed by: cddbd v1.5.2PL0 Copyright (c) Steve Scherf et al.
# Submitted via: ExactAudioCopy v0.99pb3
#
DISCID=bd0e680d
DTITLE=Harmonica Shah - If All You Have Is A Hammer, Everything Looks 
DTITLE=Like A Nail
DYEAR=2009
DGENRE=Blues
TTITLE0=Out On The Highway
TTITLE1=I Wonder Why
TTITLE2=Bumble Bee Man
TTITLE3=Nasty Brown Rat
TTITLE4=I Got A Woman Black As Midnight Gold
TTITLE5=Stranded In Detroit
TTITLE6=Every Goodbye Ain't Gone
TTITLE7=If You Don't Leave, I'll Get Somebody Who Will
TTITLE8=Blues For Ford, Chrysler And G.M.
TTITLE9=Don't You Feel Like A Dog Covered In Fleas
TTITLE10=Boom Boom
TTITLE11=Duke And Queen Blues
TTITLE12=Cryin' Won't Help Me Now
EXTD=
EXTT0=
EXTT1=
EXTT2=
EXTT3=
EXTT4=
EXTT5=
EXTT6=
EXTT7=
EXTT8=
EXTT9=
EXTT10=
EXTT11=
EXTT12=
PLAYORDER=
